<svg width="180" height="43" viewBox="0 0 180 43" fill="none" xmlns="http://www.w3.org/2000/svg">
<path d="M21.6668 17.1909L43.3336 2.11019e-06L65 17.1909L43.3336 34.3821L21.6668 17.1909" fill="white"/>
<path d="M0 17.191L21.6668 0.000105004L43.3336 17.191L21.6668 34.3822L0 17.191" fill="#3B557D"/>
<path d="M78.5166 25.0132H83.2646L78.1191 40.7183H73.124L68 25.0132H72.7695L74.9072 32.9732C75.3512 34.742 75.5947 35.9738 75.6377 36.6685C75.6878 36.1672 75.7881 35.5405 75.9385 34.7886C76.0889 34.0366 76.2214 33.4458 76.3359 33.0161L78.5166 25.0132ZM99.668 32.8443C99.668 35.4868 99.0199 37.4956 97.7236 38.8706C96.4274 40.2456 94.5296 40.9331 92.0303 40.9331C89.5667 40.9331 87.6761 40.242 86.3584 38.8599C85.0479 37.4777 84.3926 35.4653 84.3926 32.8228C84.3926 30.2088 85.0443 28.2144 86.3477 26.8394C87.6582 25.4572 89.5596 24.7661 92.0518 24.7661C94.5511 24.7661 96.4453 25.45 97.7344 26.8179C99.0234 28.1857 99.668 30.1945 99.668 32.8443ZM88.8613 32.8443C88.8613 35.8807 89.9176 37.3989 92.0303 37.3989C93.1045 37.3989 93.8994 37.0301 94.415 36.2925C94.9378 35.5549 95.1992 34.4055 95.1992 32.8443C95.1992 31.2759 94.9342 30.1193 94.4043 29.3745C93.8815 28.6226 93.0973 28.2466 92.0518 28.2466C89.9248 28.2466 88.8613 29.7791 88.8613 32.8443ZM102.504 40.7183V25.0132H106.747V37.2915H112.795V40.7183H102.504ZM130.262 40.7183H124.697L118.961 29.6538H118.864C119 31.3941 119.068 32.7225 119.068 33.6392V40.7183H115.309V25.0132H120.852L126.566 35.9273H126.631C126.531 34.3446 126.48 33.0734 126.48 32.1138V25.0132H130.262V40.7183ZM148.352 32.8443C148.352 35.4868 147.703 37.4956 146.407 38.8706C145.111 40.2456 143.213 40.9331 140.714 40.9331C138.25 40.9331 136.36 40.242 135.042 38.8599C133.731 37.4777 133.076 35.4653 133.076 32.8228C133.076 30.2088 133.728 28.2144 135.031 26.8394C136.342 25.4572 138.243 24.7661 140.735 24.7661C143.235 24.7661 145.129 25.45 146.418 26.8179C147.707 28.1857 148.352 30.1945 148.352 32.8443ZM137.545 32.8443C137.545 35.8807 138.601 37.3989 140.714 37.3989C141.788 37.3989 142.583 37.0301 143.099 36.2925C143.621 35.5549 143.883 34.4055 143.883 32.8443C143.883 31.2759 143.618 30.1193 143.088 29.3745C142.565 28.6226 141.781 28.2466 140.735 28.2466C138.608 28.2466 137.545 29.7791 137.545 32.8443ZM160.007 25.0132H164.755L159.609 40.7183H154.614L149.49 25.0132H154.26L156.397 32.9732C156.841 34.742 157.085 35.9738 157.128 36.6685C157.178 36.1672 157.278 35.5405 157.429 34.7886C157.579 34.0366 157.712 33.4458 157.826 33.0161L160.007 25.0132Z" fill="#3B557D"/>
</svg>
