<svg width="26" height="26" viewBox="0 0 26 26" fill="none" xmlns="http://www.w3.org/2000/svg">
<path d="M21.1819 3.24675C20.921 3.26573 20.665 3.32692 20.4238 3.42794H20.4206C20.189 3.51975 19.0881 3.98288 17.4143 4.68488L11.4164 7.21094C7.11262 9.02282 2.88194 10.8071 2.88194 10.8071L2.93231 10.7876C2.93231 10.7876 2.64063 10.8834 2.33594 11.0923C2.1477 11.212 1.98573 11.3688 1.85981 11.5529C1.71031 11.7723 1.59006 12.1079 1.63475 12.4548C1.70788 13.0414 2.08813 13.3933 2.36113 13.5874C2.63738 13.7841 2.90063 13.8759 2.90063 13.8759H2.90713L6.87456 15.2124C7.0525 15.7836 8.08356 19.1734 8.33137 19.9542C8.47762 20.4206 8.61981 20.7123 8.79775 20.9349C8.88387 21.0486 8.98462 21.1437 9.10569 21.2201C9.16862 21.2567 9.23573 21.2856 9.30556 21.3062L9.26494 21.2964C9.27712 21.2997 9.28687 21.3094 9.29581 21.3127C9.32831 21.3216 9.35025 21.3249 9.39169 21.3314C10.0197 21.5215 10.5243 21.1315 10.5243 21.1315L10.5527 21.1088L12.8952 18.9759L16.8212 21.9879L16.9106 22.0261C17.7287 22.3852 18.5575 22.1853 18.9954 21.8327C19.4366 21.4776 19.6081 21.0234 19.6081 21.0234L19.6365 20.9503L22.6704 5.408C22.7565 5.0245 22.7784 4.66538 22.6834 4.31682C22.5853 3.96405 22.359 3.66065 22.0488 3.46613C21.7883 3.30779 21.4863 3.23136 21.1819 3.24675ZM21.0998 4.91238C21.0966 4.96357 21.1063 4.95788 21.0836 5.05619V5.06513L18.0781 20.4458C18.0651 20.4677 18.0432 20.5156 17.9831 20.5636C17.9197 20.6139 17.8693 20.6456 17.6052 20.5408L12.8034 16.8594L9.90275 19.5033L10.5121 15.6114L18.3576 8.29888C18.681 7.99825 18.5729 7.93488 18.5729 7.93488C18.5957 7.566 18.0846 7.82682 18.0846 7.82682L8.19162 13.9555L8.18837 13.9393L3.44663 12.3427V12.3394L3.43444 12.337C3.44275 12.3342 3.45089 12.331 3.45881 12.3273L3.48481 12.3143L3.51 12.3053C3.51 12.3053 7.74394 10.5211 12.0477 8.70919C14.2025 7.80163 16.3735 6.88757 18.0432 6.18232C19.7129 5.48113 20.9471 4.96682 21.0169 4.93919C21.0836 4.91319 21.0519 4.91319 21.0998 4.91319V4.91238Z" fill="white"/>
</svg>
